<?xml version="1.0" standalone="no"?>
<!DOCTYPE svg PUBLIC "-//W3C//DTD SVG 20010904//EN"
 "http://www.w3.org/TR/2001/REC-SVG-20010904/DTD/svg10.dtd">
<svg version="1.0" xmlns="http://www.w3.org/2000/svg"
 width="500.000000pt" height="500.000000pt" viewBox="0 0 500.000000 500.000000"
 preserveAspectRatio="xMidYMid meet">
<metadata>
Created by potrace 1.14, written by Peter Selinger 2001-2017
</metadata>
<g transform="translate(0.000000,500.000000) scale(0.100000,-0.100000)"
fill="#000000" stroke="none">
<path d="M2485 4091 c-11 -5 -27 -17 -36 -27 -32 -36 -1570 -2674 -1575 -2703
-4 -17 0 -41 10 -59 34 -65 -4 -62 699 -62 528 0 643 2 665 14 20 11 108 152
347 561 176 301 322 551 323 556 2 5 -164 9 -407 9 -279 0 -418 4 -434 11 -43
19 -47 45 -47 298 0 226 1 240 21 265 l20 26 585 0 c321 0 584 3 584 7 0 3
-141 247 -312 541 -235 402 -320 539 -343 553 -32 20 -67 23 -100 10z"/>
<path d="M3523 2262 c-11 -9 -104 -160 -206 -334 l-186 -318 268 0 c211 0 271
-3 280 -13 6 -8 12 -79 13 -183 l3 -169 211 -3 c200 -2 212 -1 237 18 32 25
50 82 37 116 -6 14 -34 66 -63 117 -305 526 -442 755 -460 769 -14 11 -39 18
-67 18 -28 0 -53 -7 -67 -18z"/>
</g>
</svg>
